<?xml version="1.0" encoding="utf-8"?>
<!-- Svg Vector Icons : http://www.onlinewebfonts.com/icon -->
<!DOCTYPE svg PUBLIC "-//W3C//DTD SVG 1.1//EN" "http://www.w3.org/Graphics/SVG/1.1/DTD/svg11.dtd">
<svg version="1.1" xmlns="http://www.w3.org/2000/svg" xmlns:xlink="http://www.w3.org/1999/xlink" x="0px" y="0px" viewBox="0 0 1000 1000" enable-background="new 0 0 1000 1000" xml:space="preserve">
<metadata> Svg Vector Icons : http://www.onlinewebfonts.com/icon </metadata>
<g><g transform="translate(0.000000,511.000000) scale(0.100000,-0.100000)"><path d="M3835,4631.2c-691.1-287.2-1272.4-826.5-1594.6-1473.2c-226.5-455.3-322.2-845.2-333.9-1363.5l-7-336.2l-158.8-84.1C608.4,774.3-45.3-500.5,127.5-1765.9l30.3-212.5l4.7,140.1C202.2-848.3,729.8-73.2,1596,272.3c530,210.1,1153.3,200.8,1692.7-23.3c333.9-140.1,677.1-403.9,889.5-684.1c60.7-79.4,116.7-151.8,126.1-161.1c9.3-11.7,42-4.7,72.4,16.3c56,35,58.4,46.7,46.7,207.8c-9.4,140.1,0,191.4,42,291.8c63,149.4,205.4,277.8,345.5,315.2c95.7,25.7,100.4,30.4,93.4,109.7l-7,81.7l-154.1,16.3c-368.9,35-770.5,198.4-1092.6,438.9c-530,401.6-847.5,1003.9-882.5,1681c-42,828.8,385.2,1613.3,1116,2047.5C4031.1,4698.9,4014.8,4705.9,3835,4631.2z"/><path d="M6146.4,4596.2c385.2-235.8,667.7-544,863.8-943.2c149.4-301.2,210.1-541.7,226.5-873.2c21-413.2-49-751.8-231.1-1116c-331.5-670.1-1017.9-1151-1744-1221l-154.1-16.3V347c0-74.7,7-81.7,102.7-114.4c133.1-44.4,287.2-198.5,340.9-338.5c30.4-81.7,37.4-149.4,30.4-273.2c-11.7-161.1-11.7-165.8,51.4-198.4c60.7-32.7,63-30.4,177.5,121.4c310.5,415.6,812.5,730.8,1326.1,835.8c233.5,46.7,672.4,49,889.5,2.3c870.8-184.4,1517.6-805.5,1741.7-1667c25.7-98.1,53.7-294.2,63-436.6c11.7-212.5,16.3-240.5,32.7-163.4c9.3,51.4,23.3,224.1,32.7,385.2c35,653.7-154.1,1326.1-530,1881.8c-249.8,373.6-686.4,765.8-1092.7,985.2l-172.8,93.4l4.7,242.8c2.3,133.1-11.7,357.2-32.7,497.3C7920.7,3216.4,7281,4094.2,6372.8,4533.2C6046,4691.9,5947.9,4719.9,6146.4,4596.2z"/><path d="M4565.8,2130.8c-228.8-42-448.2-116.7-684.1-233.5c-238.1-119.1-490.3-301.2-490.3-352.5c0-21,105.1-142.4,231.1-268.5l233.5-233.5l112.1,79.4c312.9,224.1,632.7,324.5,1034.3,324.5c399.2,0,721.4-100.4,1031.9-322.2l107.4-77l133.1,116.7c72.4,63,184.5,175.1,245.1,249.8c130.7,151.8,133.1,144.8-79.4,296.5C5910.6,2084.1,5196.1,2245.2,4565.8,2130.8z"/><path d="M2543.9,83.2c-32.7-128.4-42-466.9-18.7-656c109.7-931.6,660.7-1674,1517.6-2042.9c123.7-53.7,128.4-53.7,158.8-14c46.7,65.4,144.8,389.9,158.8,530l14,121.4l-182.1,86.4c-333.9,158.8-621,450.6-789.1,800.8c-128.4,266.1-163.4,427.2-163.4,763.5v298.8l-116.7,46.7c-161.1,63-378.2,116.7-480.9,116.7C2571.9,134.6,2553.3,125.2,2543.9,83.2z"/><path d="M7115.3,87.9c-88.7-23.3-205.5-58.4-259.2-81.7l-95.7-37.4l11.7-217.1c23.3-478.6-156.4-957.2-492.6-1302.8c-142.4-149.4-357.2-303.5-513.6-371.2c-109.7-46.7-133.1-65.4-133.1-114.4c0-158.8,151.8-630.4,203.1-630.4c14,0,140.1,56,280.2,126.1c775.1,389.9,1267.7,1106.7,1361.1,1984.5c21,177.5,21,301.2,2.3,450.6c-14,112.1-25.7,212.5-25.7,224.1C7453.8,148.6,7283.4,134.6,7115.3,87.9z"/><path d="M4472.4-733.9c-67.7-32.7-65.4-37.3,4.7-205.4c135.4-322.2,163.4-473.9,161.1-887.2c0-350.2-7-403.9-65.4-595.4c-301.2-989.9-1146.4-1627.3-2150.3-1627.3c-427.2,0-831.1,107.4-1162.7,310.5c-191.5,116.7-70,0,175.1-168.1c653.7-448.3,1447.5-635,2201.6-523c427.2,65.4,807.8,198.5,1160.4,410.9c105.1,63,198.5,114.4,210.1,114.4c11.7,0,70-32.7,126.1-72.4c163.4-112.1,560.3-291.8,791.5-359.6c581.3-168.1,1167.4-168.1,1751,0c280.2,79.4,728.4,301.2,961.9,473.9c228.8,170.4,266.1,219.5,84,109.7c-399.2-238.1-912.9-345.5-1375.1-291.8c-870.9,105.1-1592.3,679.4-1867.8,1487.2c-105.1,308.2-135.4,520.6-119.1,859.2c14,301.2,81.7,588.3,191.4,805.5l56,112.1l-56,37.3c-72.4,49-70,49-170.4-32.7C5275.5-857.7,5121.4-916,5002.4-916c-119.1,0-273.2,58.4-378.2,140.1c-46.7,39.7-88.7,70-93.4,67.7C4526.1-708.3,4500.4-719.9,4472.4-733.9z"/></g></g>
</svg>